<mxfile host="app.diagrams.net" modified="2024-04-19T18:29:34.674Z" agent="Mozilla/5.0 (Windows NT 10.0; Win64; x64) AppleWebKit/537.36 (KHTML, like Gecko) Chrome/123.0.0.0 Safari/537.36 Edg/123.0.0.0" version="24.1.0" etag="Hhg8Jh16Tdw2cnNuC35k" type="github">
  <diagram name="Page-1" id="UNUDo0O3_mLKlrL9Lq1i">
    <mxGraphModel>
      <root>
        <mxCell id="0" />
        <mxCell id="1" parent="0" />
      </root>
    </mxGraphModel>
  </diagram>
</mxfile>
